<svg t="1642498940298" class="icon" viewBox="0 0 1024 1024" version="1.1" xmlns="http://www.w3.org/2000/svg"
  p-id="32623" width="200" height="200">
  <path
    d="M511.999787 511.999787m-511.999787 0a511.999787 511.999787 0 1 0 1023.999573 0 511.999787 511.999787 0 1 0-1023.999573 0Z"
    fill="#D4D7D9" p-id="32624"></path>
  <path d="M0 511.999787a511.999787 511.999787 0 1 0 1023.999573 0 511.999787 511.999787 0 0 0-1023.999573 0z"
    fill="#D5E2FF" p-id="32625"></path>
  <path
    d="M267.178555 960.554266A242.261232 242.261232 0 0 1 255.999893 887.722297c0-124.415948 93.781294-226.389239 213.119912-236.202568v-45.226648h66.133305v45.951981c115.797285 13.354661 205.781248 113.706619 205.781248 235.519901 0 31.018654-5.845331 60.671975-16.42666 87.893297A495.78646 495.78646 0 0 1 510.421121 1023.999573a497.919793 497.919793 0 0 1-243.199899-63.445307z"
    fill="#4781F8" p-id="32626"></path>
  <path
    d="M733.866361 466.773139a242.346566 242.346566 0 0 1-230.271904 166.485264h-9.941329a242.474566 242.474566 0 0 1-230.271904-166.527931h-1.109333c-18.346659 0-33.237319-13.013328-33.23732-28.927988 0-12.885328 9.599996-23.765323 22.997324-27.519988a242.389232 242.389232 0 0 1 241.493233-262.101224h9.983996a242.389232 242.389232 0 0 1 241.493232 262.101224c13.311994 3.754665 22.997324 14.719994 22.997324 27.519988 0 16.04266-14.933327 28.927988-33.237319 28.927988H733.866361z"
    fill="#FFF6EE" p-id="32627"></path>
  <path
    d="M274.218552 394.410502c34.133319-105.813289 125.311948-154.325269 273.36522-145.535939 90.794629 7.679997 152.746603 63.957307 185.813256 168.789263 52.223978-71.637303 61.951974-135.509277 28.927988-191.74392-33.023986-46.079981-53.674644-42.197316-82.602633-38.357317-28.927988 3.839998-24.746656 3.839998-24.746656-23.039991 0-42.197316-16.469326-149.631938-198.186584-95.914627-181.674591 53.717311-134.741277 91.647962-233.813236 61.013308-13.951994 50.474646-13.951994 111.65862 52.138645 138.453276 16.511993 7.679997-13.738661 25.514656-26.538656 63.359974-8.53333 33.535986 0 54.613311 25.59999 62.975973z"
    fill="#4781F8" p-id="32628"></path>
  <path
    d="M458.111809 565.887764h80.8533c-9.215996 16.29866-23.893323 26.965322-40.49065 26.965322-16.55466 0-31.06132-10.538662-40.36265-26.965322z"
    fill="#B1C8F8" p-id="32629"></path>
  <path
    d="M417.706493 671.914387c16.42666-5.717331 31.999987-9.429329 54.911977-11.690662 16.127993 14.250661 26.879989 32.85332 32.511986 55.63731l-50.175979 48.725313c-13.098661-49.962646-25.471989-80.810633-37.290651-92.671961z m175.146593 2.133332c-11.178662-5.674664-24.57599-13.098661-52.394645-13.098661a367.95718 367.95718 0 0 0-35.327985 54.911977L556.373102 767.99968c13.823994-49.962646 26.026656-81.194633 36.479984-93.909294z"
    fill="#FFF6EE" p-id="32630"></path>
</svg>