<svg t="1648268844309" class="icon" viewBox="0 0 1039 1024" version="1.1" xmlns="http://www.w3.org/2000/svg" p-id="3607" width="200" height="200"><path d="M76.41791 0h802.38806c42.79403 0 76.41791 33.623881 76.417911 76.41791v501.301493c0 42.79403-33.623881 76.41791-76.417911 76.41791H76.41791c-42.79403 0-76.41791-33.623881-76.41791-76.41791V76.41791c0-42.79403 33.623881-76.41791 76.41791-76.41791z" fill="#9774FF" p-id="3608"></path><path d="M160.477612 67.247761H962.865672c42.79403 0 76.41791 33.623881 76.41791 76.417911v501.301492c0 42.79403-33.623881 76.41791-76.41791 76.417911H160.477612c-42.79403 0-76.41791-33.623881-76.417911-76.417911V143.665672c0-42.79403 33.623881-76.41791 76.417911-76.417911z" fill="#9774FF" opacity=".2" p-id="3609"></path><path d="M435.58209 654.137313h100.871641v244.537314c0 12.226866-10.698507 22.925373-22.925373 22.925373H458.507463c-12.226866 0-22.925373-10.698507-22.925373-22.925373v-244.537314z" fill="#6C3AFF" p-id="3610"></path><path d="M205.793433 357.284299c12.226866 0 21.397015 9.170149 21.397015 21.397014v151.307463c0 12.226866-9.170149 21.397015-21.397015 21.397015-12.226866 0-21.397015-9.170149-21.397015-21.397015v-151.307463c0-10.698507 9.170149-21.397015 21.397015-21.397014zM383.082985 251.827582c12.226866 0 21.397015 9.170149 21.397015 21.397015v256.764179c0 12.226866-9.170149 21.397015-21.397015 21.397015-12.226866 0-21.397015-9.170149-21.397015-21.397015v-255.235821c0-12.226866 9.170149-22.925373 21.397015-22.925373zM574.127761 192.221612c12.226866 0 21.397015 9.170149 21.397015 21.397015v316.370149c0 12.226866-9.170149 21.397015-21.397015 21.397015-12.226866 0-21.397015-9.170149-21.397015-21.397015v-314.841791c0-12.226866 9.170149-22.925373 21.397015-22.925373zM765.172537 117.33206c12.226866 0 21.397015 9.170149 21.397015 21.397015v391.259701c0 12.226866-9.170149 21.397015-21.397015 21.397015-12.226866 0-21.397015-9.170149-21.397015-21.397015v-391.259701c0-12.226866 9.170149-21.397015 21.397015-21.397015z" fill="#FFFFFF" p-id="3611"></path><path d="M30.567164 837.540299h894.089552c16.81194 0 30.567164 13.755224 30.567165 30.567164v39.737313c0 16.81194-13.755224 30.567164-30.567165 30.567164H30.567164c-16.81194 0-30.567164-13.755224-30.567164-30.567164v-39.737313c0-16.81194 13.755224-30.567164 30.567164-30.567164z" fill="#6C3AFF" p-id="3612"></path><path d="M114.626866 921.6H1008.716418c16.81194 0 30.567164 13.755224 30.567164 30.567164v39.737314c0 16.81194-13.755224 30.567164-30.567164 30.567164H114.626866c-16.81194 0-30.567164-13.755224-30.567165-30.567164v-39.737314c0-16.81194 13.755224-30.567164 30.567165-30.567164z" fill="#6C3AFF" opacity=".2" p-id="3613"></path></svg>