<svg t="1642660521325" class="icon" viewBox="0 0 1024 1024" version="1.1" xmlns="http://www.w3.org/2000/svg"
  p-id="21169" width="200" height="200">
  <path
    d="M126.242133 383.010133h3.515734a126.242133 126.242133 0 1 1 0 252.484267h-3.515734a126.242133 126.242133 0 1 1 0-252.484267z"
    fill="#d81e06" p-id="21170"></path>
  <path
    d="M510.242133 4.266667h3.515734a126.242133 126.242133 0 1 1 0 252.501333h-3.515734a126.242133 126.242133 0 1 1 0-252.501333z"
    fill="#d81e06" opacity=".8" p-id="21171"></path>
  <path
    d="M894.242133 383.010133h3.515734a126.242133 126.242133 0 1 1 0 252.484267h-3.515734a126.242133 126.242133 0 1 1 0-252.484267z"
    fill="#d81e06" opacity=".6" p-id="21172"></path>
  <path
    d="M510.242133 761.7536h3.515734a126.242133 126.242133 0 1 1 0 252.484267h-3.515734a126.242133 126.242133 0 1 1 0-252.484267z"
    fill="#d81e06" opacity=".2" p-id="21173"></path>
</svg>