<svg t="1648269429573" class="icon" viewBox="0 0 1024 1024" version="1.1" xmlns="http://www.w3.org/2000/svg" p-id="37254" width="200" height="200"><path d="M512 872.838095c-24.380952 0-46.32381-4.87619-68.266667-17.066666l-365.714285-190.171429-51.2 26.819048c-34.133333 17.066667-34.133333 68.266667 0 85.333333l451.047619 236.495238c9.752381 4.87619 21.942857 7.314286 34.133333 7.314286s24.380952-2.438095 34.133333-7.314286l451.047619-236.495238c34.133333-17.066667 34.133333-68.266667 0-85.333333l-51.2-26.819048-365.714285 190.171429c-21.942857 12.190476-43.885714 17.066667-68.266667 17.066666z" fill="#8F65FF" p-id="37255"></path><path d="M997.180952 468.114286l-51.2-26.819048-134.095238 70.704762-80.457143 41.447619-151.161904 80.457143c-21.942857 9.752381-43.885714 17.066667-68.266667 17.066667s-46.32381-4.87619-68.266667-17.066667L292.571429 553.447619 212.114286 512l-134.095238-70.704762-51.2 26.819048c-34.133333 17.066667-34.133333 68.266667 0 85.333333l51.2 26.819048 78.019047 41.447619 319.390476 168.228571c9.752381 4.87619 21.942857 7.314286 34.133334 7.314286s24.380952-2.438095 34.133333-7.314286l319.390476-168.228571 78.019048-41.447619 51.2-26.819048c39.009524-17.066667 39.009524-65.828571 4.87619-85.333333z" fill="#C7B2FF" p-id="37256"></path><path d="M512 799.695238c-12.190476 0-24.380952-2.438095-34.133333-7.314286L158.47619 624.152381l-78.019047 41.447619 365.714286 190.171429c21.942857 9.752381 43.885714 17.066667 68.266666 17.066666s46.32381-4.87619 68.266667-17.066666l365.714286-190.171429-78.019048-41.447619-319.390476 168.228571c-14.628571 4.87619-26.819048 7.314286-39.009524 7.314286z" fill="#FFFFFF" p-id="37257"></path><path d="M997.180952 246.247619L546.133333 9.752381c-4.87619-2.438095-9.752381-4.87619-17.066666-7.314286-4.87619-2.438095-12.190476-2.438095-17.066667-2.438095s-12.190476 0-17.066667 2.438095-12.190476 2.438095-17.066666 7.314286L26.819048 246.247619c-34.133333 17.066667-34.133333 68.266667 0 85.333333l51.2 26.819048 78.019047 41.447619 134.095238 70.704762 78.019048 41.447619 107.27619 56.07619c9.752381 4.87619 21.942857 7.314286 34.133334 7.314286s24.380952-2.438095 34.133333-7.314286l107.276191-56.07619 78.019047-41.447619 134.095238-70.704762 78.019048-41.447619 51.2-26.819048c39.009524-17.066667 39.009524-68.266667 4.87619-85.333333z" fill="#8F65FF" p-id="37258"></path><path d="M529.066667 4.87619c-12.190476-2.438095-24.380952-2.438095-34.133334 0 4.87619-2.438095 12.190476-2.438095 17.066667-2.438095 4.87619 0 12.190476 0 17.066667 2.438095z" fill="#FFFFFF" p-id="37259"></path></svg>