<svg t="1642407709125" class="icon" viewBox="0 0 1024 1024" version="1.1" xmlns="http://www.w3.org/2000/svg"
  p-id="20224" width="200" height="200">
  <path d="M847.872 240.128v688c0 26.56-21.408 48-48 48h-576c-26.56 0-48-21.44-48-48v-832c0-26.592 21.44-48 48-48h432z"
    fill="#E9EDED" p-id="20225"></path>
  <path d="M160 768.128v160c0 35.456 28.544 64 64 64h576c35.456 0 64-28.544 64-64v-160H160z" fill="#2B4255"
    p-id="20226"></path>
  <path d="M847.872 240.128h-144c-26.56 0-48-21.44-48-48v-144" fill="#2B4255" p-id="20227"></path>
  <path
    d="M432 352.128v64h-83.008c-6.656-18.56-24.32-32-44.992-32-26.336 0-48 21.664-48 48 0 26.304 21.664 48 48 48 20.672 0 38.304-13.504 44.992-32h44.448C328.544 485.824 288 552 288 624.128v16h32v-16c0-62.432 35.968-120.384 95.488-152.128 5.376-2.88 10.944-5.152 16.512-7.488v47.616h160v-47.616c5.568 2.336 11.136 4.64 16.512 7.488 59.52 31.744 95.488 89.696 95.488 152.128v16h32v-16c0-72.096-40.544-138.304-105.44-176h44.448c6.688 18.496 24.32 32 44.992 32 26.336 0 48-21.696 48-48 0-26.336-21.664-48-48-48-20.704 0-38.336 13.44-44.992 32H592v-64h-160z m32 32h96v32h-96v-32z m-160 32c9.024 0 16 6.976 16 16 0 9.024-6.976 16-16 16a15.776 15.776 0 0 1-16-16c0-9.024 6.976-16 16-16z m416 0c9.024 0 16 6.976 16 16 0 9.024-6.976 16-16 16a15.776 15.776 0 0 1-16-16c0-9.024 6.976-16 16-16zM512 448.192c16.128 0 32.288 1.92 48 5.632v26.304h-96v-26.304a209.376 209.376 0 0 1 48-5.632z"
    fill="#2B4255" p-id="20228"></path>
  <path
    d="M430.688 799.936a16 16 0 0 0-12.864 23.36l64 128a16 16 0 0 0 28.608 0l64-128a16 16 0 1 0-28.608-14.304l-49.696 99.392-49.696-99.392a16 16 0 0 0-14.112-9.056 16 16 0 0 0-1.632 0z m-128.32 0.192a16 16 0 0 0-1.984 0.384c-24.64 1.92-44.384 22.528-44.384 47.616 0 25.28 20.096 46.08 44.992 47.68a16 16 0 0 0 3.008 0.32h32c9.152 0 16 6.848 16 16 0 9.152-6.848 16-16 16h-64a16 16 0 1 0 0 32h64a16 16 0 0 0 3.328-0.384A48.096 48.096 0 0 0 384 912.128c0-25.152-19.84-45.888-44.576-47.68a16 16 0 0 0-3.424-0.32h-32a15.616 15.616 0 0 1-16-16c0-9.152 6.848-16 16-16h64a16 16 0 1 0 0-32H305.12a16 16 0 0 0-1.12 0 16 16 0 0 0-1.6 0z m356 0c-27.616 0-50.368 22.72-50.368 50.368v59.264c0 27.616 22.72 50.368 50.368 50.368h27.264a50.56 50.56 0 0 0 49.6-43.136 16 16 0 0 0 0.768-5.056v-31.552a16 16 0 0 0 0-0.256 16 16 0 0 0 0-0.256 16 16 0 0 0-0.064-1.12 16 16 0 0 0-0.064-0.512 16 16 0 0 0-0.256-1.568 16 16 0 0 0-0.416-1.536 16 16 0 0 0-0.384-1.024 16 16 0 0 0-0.192-0.48 16 16 0 0 0-0.128-0.192 16 16 0 0 0-1.44-2.56 16 16 0 0 0-0.672-0.864 16 16 0 0 0-0.32-0.384 16 16 0 0 0-0.736-0.832 16 16 0 0 0-0.384-0.352 16 16 0 0 0-0.192-0.192 16 16 0 0 0-0.992-0.832 16 16 0 0 0-1.312-0.928 16 16 0 0 0-1.44-0.736 16 16 0 0 0-1.44-0.64 16 16 0 0 0-1.056-0.384 16 16 0 0 0-0.512-0.096 16 16 0 0 0-1.056-0.256 16 16 0 0 0-0.512-0.064 16 16 0 0 0-1.568-0.192 16 16 0 0 0-1.12 0h-31.488a16 16 0 1 0 0 32H704v13.632a18.016 18.016 0 0 1-18.368 18.368h-27.264A18.016 18.016 0 0 1 640 909.76v-59.264c0-10.432 7.936-18.368 18.368-18.368H720a16 16 0 1 0 0-32h-61.632z"
    fill="#E9EDED" p-id="20229"></path>
</svg>