<svg t="1642510099531" class="icon" viewBox="0 0 1024 1024" version="1.1" xmlns="http://www.w3.org/2000/svg"
  p-id="10719" width="200" height="200">
  <path
    d="M512 420.736a91.264 91.264 0 0 0 0 182.528 91.264 91.264 0 0 0 0-182.528z m-255.648 272.8l-20.128-5.12C86.112 650.496 0.032 586.112 0.032 511.808s86.112-138.656 236.192-176.608l20.128-5.088 5.664 19.968a995.328 995.328 0 0 0 60.768 158.624l-2.624-5.952 4.32 9.088-4.32 9.088a939.776 939.776 0 0 0-56.352 145.632l-1.792 7.04z m-29.504-311.68c-114.08 32.032-184.096 81.056-184.096 129.952 0 48.864 70.016 97.888 184.096 129.952a1043.552 1043.552 0 0 1 53.184-136.416l-2.752 6.464a973.92 973.92 0 0 1-48.352-122.496l-2.08-7.488z m540.8 311.68l-5.664-20a985.024 985.024 0 0 0-60.8-158.528l2.592 5.888-4.32-9.088 4.32-9.088a942.592 942.592 0 0 0 56.384-145.6l1.792-7.072 5.664-19.968 20.192 5.088c150.048 37.92 236.16 102.304 236.16 176.64s-86.112 138.656-236.16 176.608z m-20.928-181.696a1057.216 1057.216 0 0 1 50.432 129.952c114.144-32.096 184.096-81.12 184.096-129.952 0-48.896-70.016-97.888-184.096-129.952a1037.568 1037.568 0 0 1-53.184 136.384l2.752-6.4zM226.56 381.664l-5.664-19.936C178.688 212.992 191.488 106.4 256 69.216c63.264-36.512 164.864 6.624 271.328 115.872l14.496 14.88-14.496 14.88a1011.2 1011.2 0 0 0-101.184 123.296l-2.176 3.296-5.76 8.224-10.016 0.864a1013.344 1013.344 0 0 0-168.448 27.52l6.976-1.504z m80.896-282.88c-11.424 0-21.536 2.464-30.08 7.392-42.4 24.448-49.92 109.44-20.704 224.128a998.208 998.208 0 0 1 133.76-21.056l4.192-0.32a1066.496 1066.496 0 0 1 88.192-109.248l-0.64 0.704c-66.56-64.8-129.568-101.6-174.72-101.6z m409.12 868.768c-0.032 0-0.032 0 0 0-60.8 0-138.88-45.792-219.904-128.992l-14.496-14.88 14.496-14.88a1005.664 1005.664 0 0 0 101.12-123.328l2.176-3.296 5.76-8.224 9.984-0.864a1015.68 1015.68 0 0 0 168.544-27.456l-6.976 1.472 20.128-5.088 5.728 19.968c42.112 148.64 29.344 255.264-35.168 292.448a100.224 100.224 0 0 1-49.984 13.152h-1.504 0.064z m-174.752-144.256c66.56 64.8 129.568 101.6 174.72 101.6h0.032c11.392 0 21.536-2.464 30.048-7.392 42.4-24.448 49.952-109.472 20.704-224.16a989.856 989.856 0 0 1-133.824 21.056l-4.16 0.32a1063.008 1063.008 0 0 1-88.16 109.312l0.64-0.704z m255.616-441.632l-20.128-5.088c-46.496-12.032-101.6-21.248-158.048-25.792l-3.552-0.224-9.984-0.864-5.76-8.224a1010.24 1010.24 0 0 0-103.584-126.912l0.288 0.32-14.496-14.88 14.496-14.88C603.072 75.904 704.64 32.768 768 69.248c64.512 37.216 77.312 143.776 35.168 292.48z m-168.096-72.768c48.736 4.448 95.008 11.648 137.984 21.376 29.28-114.688 21.728-199.68-20.704-224.128-42.144-24.352-121.376 12.96-204.8 94.208a1068.032 1068.032 0 0 1 85.312 105.248l2.208 3.296zM307.456 967.552h-1.472a100.896 100.896 0 0 1-50.464-13.408l0.48 0.256c-64.512-37.152-77.312-143.744-35.104-292.448l5.632-19.968 20.128 5.088c49.28 12.416 103.648 21.152 161.504 25.984l10.016 0.864 5.728 8.224a1008.672 1008.672 0 0 0 103.648 126.944l-0.32-0.32 14.496 14.88-14.496 14.88c-80.992 83.2-159.072 128.992-219.776 128.992z m-50.784-274.208c-29.28 114.688-21.728 199.712 20.704 224.16 42.112 24.032 121.312-13.024 204.8-94.208a1073.376 1073.376 0 0 1-85.344-105.28l-2.208-3.296a1066.08 1066.08 0 0 1-145.088-22.752l7.168 1.376z m255.328 26.784c-35.104 0-71.2-1.536-107.36-4.512l-10.016-0.864-5.76-8.224a1225.696 1225.696 0 0 1-54.304-84.448l-3.296-6.08a1155.84 1155.84 0 0 1-46.4-87.296l-3.36-7.776-4.256-9.088 4.256-9.088a1233.184 1233.184 0 0 1 53.056-101.152l-3.296 6.112a1292.8 1292.8 0 0 1 57.6-90.528l5.76-8.224 10.016-0.864a1287.264 1287.264 0 0 1 219.52 0.352l-4.8-0.352 9.984 0.864 5.728 8.224a1251.296 1251.296 0 0 1 104.064 177.92l3.328 7.68 4.32 9.088-4.32 9.088a1258.496 1258.496 0 0 1-110.048 189.6l2.656-4-5.728 8.224-9.984 0.864a1314.656 1314.656 0 0 1-107.392 4.512z m-93.728-46.24c63.136 4.736 124.32 4.736 187.52 0a1202.24 1202.24 0 0 0 90.464-154.752l3.232-7.296a1212.512 1212.512 0 0 0-96.384-166.08l2.656 4.032a1257.728 1257.728 0 0 0-191.744 0.256l4.288-0.256a1182.4 1182.4 0 0 0-90.56 154.88l-3.168 7.168a1232.064 1232.064 0 0 0 96.448 166.176l-2.72-4.16z"
    fill="#61DAFB" p-id="10720"></path>
</svg>