<svg t="1642510184787" class="icon" viewBox="0 0 1024 1024" version="1.1" xmlns="http://www.w3.org/2000/svg"
  p-id="13675" width="200" height="200">
  <path
    d="M511.957 12.65C229.248 12.65 0 241.878 0 524.673c0 226.197 146.688 418.09 350.165 485.803 25.6 4.693 34.944-11.094 34.944-24.683 0-12.16-0.426-44.352-0.682-87.083-142.422 30.934-172.48-68.629-172.48-68.629-23.275-59.136-56.854-74.88-56.854-74.88-46.485-31.787 3.52-31.147 3.52-31.147 51.392 3.627 78.422 52.779 78.422 52.779 45.674 78.23 119.829 55.637 149.013 42.539 4.65-33.067 17.877-55.659 32.512-68.438-113.707-12.928-233.216-56.853-233.216-253.056 0-55.893 19.947-101.589 52.693-137.386-5.269-12.95-22.826-65.003 5.014-135.51 0 0 42.986-13.76 140.8 52.48 40.832-11.349 84.629-17.024 128.17-17.216 43.478 0.214 87.296 5.867 128.192 17.238 97.75-66.262 140.651-52.48 140.651-52.48 27.947 70.485 10.368 122.538 5.099 135.466 32.81 35.819 52.629 81.515 52.629 137.408 0 196.694-119.701 239.979-233.77 252.651 18.389 15.787 34.773 47.061 34.773 94.805 0 68.459-0.64 123.67-0.64 140.459 0 13.696 9.216 29.632 35.2 24.619C877.44 942.57 1024 750.784 1024 524.672c0-282.795-229.27-512.021-512.043-512.021z"
    fill="#191717" p-id="13676"></path>
</svg>