<svg t="1651150279066" class="icon" viewBox="0 0 1024 1024" version="1.1" xmlns="http://www.w3.org/2000/svg" p-id="5121"
  width="200" height="200">
  <path d="M513 507.3m-448 0a448 448 0 1 0 896 0 448 448 0 1 0-896 0Z" fill="#5E7BF7" p-id="5122"></path>
  <path
    d="M759.1 801.9H267.9c-5.5 0-10-4.5-10-10V234.6c0-5.5 4.5-10 10-10h491.2c5.5 0 10 4.5 10 10v557.3c0 5.5-4.5 10-10 10z"
    fill="#ffffff" p-id="5123"></path>
  <path
    d="M640 337.6H380.4c-4.7 0-8.6-3.9-8.6-8.6 0-4.7 3.9-8.6 8.6-8.6H640c4.7 0 8.6 3.9 8.6 8.6 0 4.7-3.8 8.6-8.6 8.6zM644.2 420.1H350.6c-4.7 0-8.6-3.9-8.6-8.6 0-4.7 3.9-8.6 8.6-8.6h293.7c4.7 0 8.6 3.9 8.6 8.6 0 4.7-3.9 8.6-8.7 8.6zM644.2 502.5H350.6c-4.7 0-8.6-3.9-8.6-8.6 0-4.7 3.9-8.6 8.6-8.6h293.7c4.7 0 8.6 3.9 8.6 8.6 0 4.8-3.9 8.6-8.7 8.6zM644.2 585H350.6c-4.7 0-8.6-3.9-8.6-8.6 0-4.7 3.9-8.6 8.6-8.6h293.7c4.7 0 8.6 3.9 8.6 8.6 0 4.7-3.9 8.6-8.7 8.6zM574.6 667.5h-224c-4.7 0-8.6-3.9-8.6-8.6 0-4.7 3.9-8.6 8.6-8.6h224.1c4.7 0 8.6 3.9 8.6 8.6 0 4.7-3.9 8.6-8.7 8.6zM574.6 749.9h-224c-4.7 0-8.6-3.9-8.6-8.6 0-4.7 3.9-8.6 8.6-8.6h224.1c4.7 0 8.6 3.9 8.6 8.6 0 4.8-3.9 8.6-8.7 8.6z"
    fill="#5E7BF7" p-id="5124"></path>
</svg>