<svg t="1650893573698" class="icon" viewBox="0 0 1024 1024" version="1.1" xmlns="http://www.w3.org/2000/svg" p-id="23381" width="200" height="200"><path d="M448 335.985778v144.023703a128 128 0 0 0 128 128h352.009481v148.15763a75.851852 75.851852 0 0 1-72.059259 75.757037l-3.792592 0.094815H831.772444a136.00237 136.00237 0 0 0-271.549629 0h-96.44563a136.00237 136.00237 0 0 0-271.549629 0H171.861333a75.851852 75.851852 0 0 1-75.757037-72.059259l-0.094815-3.792593V562.688a75.851852 75.851852 0 0 1 13.539556-43.235556l2.74963-3.735703 118.954666-150.831408a75.851852 75.851852 0 0 1 55.220148-28.747852l4.323556-0.13274h157.202963zM852.15763 160.009481a75.851852 75.851852 0 0 1 75.851851 75.851852v308.148148H576a64 64 0 0 1-64-64V235.861333a75.851852 75.851852 0 0 1 75.851852-75.851852h264.305778z m-132.152889 272.004741a32.009481 32.009481 0 1 0 0 64 32.009481 32.009481 0 0 0 0-64z m0-224.009481c-16.744296 0-30.473481 12.856889-31.876741 29.240889l-0.113778 2.768592v128a32.009481 32.009481 0 0 0 63.886222 2.74963l0.113778-2.74963v-128c0-17.673481-14.336-32.009481-32.009481-32.009481z" fill="#FD6112" p-id="23382"></path><path d="M328.00237 840.00237m-72.00237 0a72.00237 72.00237 0 1 0 144.004741 0 72.00237 72.00237 0 1 0-144.004741 0Z" fill="#FD6112" fill-opacity=".5" p-id="23383"></path><path d="M696.016593 840.00237m-72.002371 0a72.00237 72.00237 0 1 0 144.004741 0 72.00237 72.00237 0 1 0-144.004741 0Z" fill="#FD6112" fill-opacity=".5" p-id="23384"></path></svg>