<svg t="1656483341654" class="icon" viewBox="0 0 1024 1024" version="1.1" xmlns="http://www.w3.org/2000/svg"
  p-id="18744" width="200" height="200">
  <path
    d="M762.112 943.8208H275.8656c-107.264 0-194.2016-86.9376-194.2016-194.2016V263.3728c0-107.264 86.9376-194.2016 194.2016-194.2016h486.2464c107.264 0 194.2016 86.9376 194.2016 194.2016v486.2464c0 107.264-86.9376 194.2016-194.2016 194.2016z"
    fill="#F78748" p-id="18745"></path>
  <path
    d="M780.1344 597.0944c14.1312 0 25.6-11.4688 25.6-25.6V438.5792c0-22.1184-9.1136-43.6736-24.9856-59.0848l-178.0736-173.0048c-15.4624-15.0016-35.84-23.296-57.3952-23.296H377.7536c-70.7072 0-128.2048 57.4976-128.2048 128.2048v388.5056c0 70.7072 57.4976 128.2048 128.2048 128.2048h299.776c70.7072 0 128.2048-57.4976 128.2048-128.2048V686.08c0-14.1312-11.4688-25.6-25.6-25.6s-25.6 11.4688-25.6 25.6v13.824c0 42.4448-34.56 77.0048-77.0048 77.0048H377.7536c-42.4448 0-77.0048-34.56-77.0048-77.0048V311.3984c0-42.4448 34.56-77.0048 77.0048-77.0048h153.6v141.2608c0 37.9392 30.8736 68.7616 68.7616 68.7616h154.368v127.0272c0.0512 14.1824 11.52 25.6512 25.6512 25.6512z m-197.5296-221.3888V258.4064l138.8544 134.8608h-121.2928c-9.6768 0-17.5616-7.8848-17.5616-17.5616z"
    fill="#F7F8F8" p-id="18746"></path>
  <path
    d="M365.4144 548.7616h154.4192c14.1312 0 25.6-11.4688 25.6-25.6s-11.4688-25.6-25.6-25.6H365.4144c-14.1312 0-25.6 11.4688-25.6 25.6s11.4688 25.6 25.6 25.6zM365.4144 700.0576h284.4672c14.1312 0 25.6-11.4688 25.6-25.6s-11.4688-25.6-25.6-25.6H365.4144c-14.1312 0-25.6 11.4688-25.6 25.6s11.4688 25.6 25.6 25.6z"
    fill="#F7F8F8" p-id="18747"></path>
</svg>