<svg t="1650892893243" class="icon" viewBox="0 0 1024 1024" version="1.1" xmlns="http://www.w3.org/2000/svg" p-id="3986" width="200" height="200"><path d="M786.1 888v0.4h-493c-93.9 0-170-76.1-170-170v-527c0-28.2 22.8-51 51-51h476c28.2 0 51 22.8 51 51v170h153c28.2 0 51 22.8 51 51v348.5c0 67.6-52.6 122.7-119 127.1z" fill="#358CF8" p-id="3987"></path><path d="M701.1 361.4h153c28.2 0 51 22.8 51 51v374c0 56.3-45.7 102-102 102s-102-45.7-102-102v-425z" fill="#6FAFFF" p-id="3988"></path><path d="M701.1 463.4h153c28.2 0 51 22.8 51 51v272c0 56.3-45.7 102-102 102s-102-45.7-102-102v-323z" fill="#6FF3FF" opacity=".1" p-id="3989"></path><path d="M701.1 548.4h153c28.2 0 51 22.8 51 51v187c0 56.3-45.7 102-102 102s-102-45.7-102-102v-238z" fill="#6FF3FF" opacity=".15" p-id="3990"></path><path d="M701.1 616.4h153c28.2 0 51 22.8 51 51v119c0 56.3-45.7 102-102 102s-102-45.7-102-102v-170z" fill="#6FF3FF" opacity=".2" p-id="3991"></path><path d="M250.6 352.9h170c14.1 0 25.5 11.4 25.5 25.5s-11.4 25.5-25.5 25.5h-170c-14.1 0-25.5-11.4-25.5-25.5s11.4-25.5 25.5-25.5z" fill="#FFFFFF" p-id="3992"></path><path d="M250.6 505.9h238c14.1 0 25.5 11.4 25.5 25.5s-11.4 25.5-25.5 25.5h-238c-14.1 0-25.5-11.4-25.5-25.5s11.4-25.5 25.5-25.5zM250.6 641.9h85c14.1 0 25.5 11.4 25.5 25.5s-11.4 25.5-25.5 25.5h-85c-14.1 0-25.5-11.4-25.5-25.5s11.4-25.5 25.5-25.5z" fill="#FFFFFF" opacity=".5" p-id="3993"></path></svg>