<svg t="1650893431047" class="icon" viewBox="0 0 1024 1024" version="1.1" xmlns="http://www.w3.org/2000/svg" p-id="16993" width="200" height="200"><path d="M0 0h1024v1024H0V0z" fill="#202425" opacity=".01" p-id="16994"></path><path d="M409.6 204.8a102.4 102.4 0 0 1 102.4-102.4h341.333333a102.4 102.4 0 1 1 0 204.8H512a102.4 102.4 0 0 1-102.4-102.4z m0 307.2a102.4 102.4 0 0 1 102.4-102.4h341.333333a102.4 102.4 0 1 1 0 204.8H512a102.4 102.4 0 0 1-102.4-102.4z m102.4 204.8a102.4 102.4 0 1 0 0 204.8h341.333333a102.4 102.4 0 1 0 0-204.8H512z" fill="#FF7744" p-id="16995"></path><path d="M68.266667 204.8a102.4 102.4 0 1 1 204.8 0 102.4 102.4 0 0 1-204.8 0z m0 307.2a102.4 102.4 0 1 1 204.8 0 102.4 102.4 0 0 1-204.8 0z m102.4 204.8a102.4 102.4 0 1 0 0 204.8 102.4 102.4 0 0 0 0-204.8z" fill="#FFAA44" p-id="16996"></path></svg>