<svg t="1650852878476" class="icon" viewBox="0 0 1024 1024" version="1.1" xmlns="http://www.w3.org/2000/svg" p-id="5649"
  width="200" height="200">
  <path
    d="M760.448 943.232H287.744C180.352 943.232 93.44 856.32 93.44 748.928V276.224C93.44 168.96 180.352 81.92 287.744 81.92h472.704c107.264 0 194.304 87.04 194.304 194.304v472.704c0 107.392-87.04 194.304-194.304 194.304z"
    fill="#00E560" p-id="5650"></path>
  <path
    d="M817.536 681.088h-110.08c-2.944 0-5.248-2.304-5.248-5.248V340.864c0-2.944 2.304-5.248 5.248-5.248h110.08c2.944 0 5.248 2.304 5.248 5.248V675.84c0 2.944-2.432 5.248-5.248 5.248zM655.616 681.088h-110.08c-2.944 0-5.248-2.304-5.248-5.248V205.952c0-2.944 2.304-5.248 5.248-5.248h110.08c2.944 0 5.248 2.304 5.248 5.248V675.84c0 2.944-2.432 5.248-5.248 5.248zM818.304 745.856H229.888c-7.424 0-13.44-6.016-13.44-13.44s6.016-13.44 13.44-13.44h588.416c7.424 0 13.44 6.016 13.44 13.44s-6.016 13.44-13.44 13.44zM493.568 681.088h-110.08c-2.944 0-5.248-2.304-5.248-5.248V457.856c0-2.944 2.304-5.248 5.248-5.248h110.08c2.944 0 5.248 2.304 5.248 5.248V675.84c0 2.944-2.304 5.248-5.248 5.248zM331.648 681.088h-110.08c-2.944 0-5.248-2.304-5.248-5.248v-75.904c0-2.944 2.304-5.248 5.248-5.248h110.08c2.944 0 5.248 2.304 5.248 5.248V675.84c0 2.944-2.304 5.248-5.248 5.248z"
    fill="#FFFFFF" p-id="5651"></path>
</svg>