<svg t="1650897381720" class="icon" viewBox="0 0 1024 1024" version="1.1" xmlns="http://www.w3.org/2000/svg" p-id="135897" width="200" height="200"><path d="M514.816 515.84m-453.2224 0a453.2224 453.2224 0 1 0 906.4448 0 453.2224 453.2224 0 1 0-906.4448 0Z" fill="#EE4F3E" p-id="135898"></path><path d="M516.3008 62.6176c-250.3168 0-453.2224 202.9056-453.2224 453.2224 0 99.7888 32.256 192 86.8864 266.8544 74.8544 54.6304 167.0656 86.8864 266.8544 86.8864 250.3168 0 453.2224-202.9056 453.2224-453.2224 0-99.7888-32.256-192-86.8864-266.8544-74.8544-54.6304-167.1168-86.8864-266.8544-86.8864z" fill="#EA623D" p-id="135899"></path><path d="M759.9616 309.2992c0-72.6016-17.152-141.2096-47.5136-202.0352-59.3408-28.5696-125.8496-44.5952-196.096-44.5952-250.3168 0-453.2224 202.9056-453.2224 453.2224 0 72.6016 17.152 141.2096 47.5136 202.0352 59.3408 28.5696 125.8496 44.5952 196.096 44.5952 250.3168 0 453.2224-202.9056 453.2224-453.2224z" fill="#F37140" p-id="135900"></path><path d="M63.0784 515.84c0 38.912 4.9664 76.6464 14.2336 112.64a443.5968 443.5968 0 0 0 114.688 15.0528c245.7088 0 444.928-199.2192 444.928-444.928 0-43.1616-6.2464-84.7872-17.7152-124.2112-33.024-7.68-67.4816-11.776-102.8608-11.776-250.368 0-453.2736 202.9568-453.2736 453.2224z" fill="#F47847" p-id="135901"></path><path d="M726.8864 272.1792H299.9808c-35.84 0-64.8704 31.0784-64.8704 69.4272v529.7152c77.2608 61.184 174.9504 97.792 281.1904 97.792 103.6288 0 199.1168-34.816 275.456-93.2864V341.6064c0-38.3488-29.0816-69.4272-64.8704-69.4272zM377.088 428.7488h102.2976c18.7904 0 34.048 15.2576 34.048 34.048 0 18.7904-15.2576 34.048-34.048 34.048H377.088c-18.7904 0-34.048-15.2576-34.048-34.048a33.9968 33.9968 0 0 1 34.048-34.048z m262.2464 160.8704c0 18.7904-15.2576 34.048-34.048 34.048H377.088c-18.7904 0-34.048-15.2576-34.048-34.048 0-18.7904 15.2576-34.048 34.048-34.048h228.1984c18.7904 0 34.048 15.2576 34.048 34.048z" fill="#F7F8F8" p-id="135902"></path><path d="M235.1104 341.6064v243.1488l110.08-110.08c-1.3824-3.7376-2.1504-7.7312-2.1504-11.8784 0-18.7904 15.2576-34.048 34.048-34.048h14.08l156.5696-156.5696H299.9808c-35.84 0-64.8704 31.0784-64.8704 69.4272z" fill="#FFFFFF" p-id="135903"></path><path d="M726.8864 272.1792h-179.2L391.1168 428.7488h88.2176c18.7904 0 34.048 15.2576 34.048 34.048 0 18.7904-15.2576 34.048-34.048 34.048H377.088c-14.6432 0-27.0336-9.216-31.8976-22.1696l-110.08 110.08v286.5664c0.9216 0.7168 1.8432 1.3824 2.7648 2.0992l249.7024-249.7024H377.088c-18.7904 0-34.048-15.2576-34.048-34.048 0-18.7904 15.2576-34.048 34.048-34.048h178.5856l233.4208-233.4208c-7.8336-28.928-32.7168-50.0224-62.208-50.0224z" fill="#EFEFEF" p-id="135904"></path><path d="M440.0128 962.6624l351.744-351.744v-269.312c0-6.7584-0.9216-13.2608-2.6112-19.456l-233.4208 233.4208h49.5616c18.7904 0 34.048 15.2576 34.048 34.048 0 18.7904-15.2576 34.048-34.048 34.048H487.5776l-249.7024 249.7024c57.8048 45.1072 126.7712 76.4928 202.1376 89.2928z" fill="#EFE1DA" p-id="135905"></path><path d="M791.7568 875.776v-264.8576l-351.744 351.744c24.832 4.1984 50.2784 6.4512 76.288 6.4512 103.6288 0 199.0656-34.816 275.456-93.3376z" fill="#EAD4CC" p-id="135906"></path><path d="M614.0928 875.1616l-60.928 9.7792a16.25088 16.25088 0 0 1-18.7392-18.7904l9.9328-60.928c0.5632-3.584 2.304-6.912 4.9152-9.5232l287.9488-287.2832c6.656-6.656 17.3056-6.8096 23.7568-0.3584l50.9952 51.0976c6.4512 6.4512 6.2464 17.1008-0.4096 23.7568l-287.9488 287.2832c-2.6112 2.6624-5.9392 4.4032-9.5232 4.9664z" fill="#FFFFFF" p-id="135907"></path></svg>