<svg t="1645002211737" class="icon" viewBox="0 0 1024 1024" version="1.1" xmlns="http://www.w3.org/2000/svg"
  p-id="23630" width="200" height="200">
  <path
    d="M701 244H183c-53.02 0-96 42.98-96 96v471c0 53.02 42.98 96 96 96h518c53.02 0 96-42.98 96-96V340c0-53.02-42.98-96-96-96z m-518 64h518c17.673 0 32 14.327 32 32v471c0 17.673-14.327 32-32 32H183c-17.673 0-32-14.327-32-32V340c0-17.673 14.327-32 32-32z"
    fill="#979797" p-id="23631"></path>
  <path
    d="M701 244H183c-53.02 0-96 42.98-96 96v471c0 53.02 42.98 96 96 96h518c53.02 0 96-42.98 96-96V340c0-53.02-42.98-96-96-96z m-518 64h518c17.673 0 32 14.327 32 32v471c0 17.673-14.327 32-32 32H183c-17.673 0-32-14.327-32-32V340c0-17.673 14.327-32 32-32z"
    fill="#2600FF" p-id="23632"></path>
  <path
    d="M239 439h69v69h-69zM239 541h69v69h-69zM239 644h69v69h-69zM350 644h69v69h-69zM460 644h69v69h-69zM571 644h69v69h-69z"
    fill="#CDCBFF" p-id="23633"></path>
  <path
    d="M840.907 117c49.85 0 91.257 37.988 92.08 86.334l0.013 1.468v487.396c0 48.553-40.909 87.026-90.585 87.79l-1.508 0.012h-72.83v-64h72.83c15.863 0 27.851-10.985 28.09-23.425l0.003-0.377V204.802c0-12.468-11.83-23.578-27.614-23.799l-0.479-0.003H315.093c-15.863 0-27.851 10.985-28.09 23.425l-0.003 0.377v68.8h-64v-68.8c0-48.553 40.909-87.026 90.585-87.79l1.508-0.012h525.814z"
    fill="#2600FF" p-id="23634"></path>
</svg>