<svg t="1650893976333" class="icon" viewBox="0 0 1024 1024" version="1.1" xmlns="http://www.w3.org/2000/svg" p-id="53901" width="200" height="200"><path d="M751.744 968.96H249.472c-114.048 0-206.464-92.416-206.464-206.464V260.224C43.008 146.176 135.424 53.76 249.472 53.76h502.272c114.048 0 206.464 92.416 206.464 206.464v502.272c0 114.048-92.416 206.464-206.464 206.464z" fill="#CECED3" p-id="53902"></path><path d="M500.608 511.36m-371.456 0a371.456 371.456 0 1 0 742.912 0 371.456 371.456 0 1 0-742.912 0Z" fill="#2A2A2B" p-id="53903"></path><path d="M725.76 519.296l-28.8-5.632v-0.64c0-1.792-0.256-3.456-0.256-5.248l28.928-7.936c2.176-0.64 1.92-3.968-0.384-4.096l-29.44-2.56c-0.256-1.92-0.64-3.84-0.896-5.76l28.16-11.008c2.048-0.768 1.408-4.096-0.768-4.096l-29.696 0.512c-0.384-1.92-1.024-3.712-1.408-5.504l27.008-13.952c1.92-1.024 1.024-4.224-1.152-3.968l-29.696 3.584c-0.512-1.792-1.28-3.456-1.92-5.248l25.6-16.896c1.792-1.152 0.512-4.352-1.536-3.84l-29.44 6.784c-0.768-1.664-1.664-3.328-2.432-4.992l23.808-19.584c1.664-1.408 0.128-4.352-1.92-3.584l-28.672 9.856c-0.896-1.536-1.92-3.072-2.816-4.608l21.76-22.016c1.536-1.536-0.384-4.352-2.304-3.456l-27.648 12.928c-1.024-1.408-2.176-2.816-3.2-4.224l19.456-24.32c1.408-1.664-0.768-4.224-2.688-3.2l-26.368 15.744c-1.152-1.28-2.304-2.688-3.584-3.968l16.768-26.24c1.152-1.92-1.28-4.224-2.944-2.816l-24.576 18.56c-1.28-1.152-2.56-2.432-3.84-3.584l13.952-27.904c1.024-1.92-1.664-3.968-3.328-2.56l-22.656 20.992c-1.408-1.024-2.816-2.176-4.224-3.2l11.008-29.312c0.768-2.048-2.048-3.84-3.584-2.176l-20.352 23.296c-1.536-0.896-2.944-1.92-4.48-2.688l7.936-30.208c0.512-2.176-2.432-3.584-3.712-1.792L581.632 334.08c-1.536-0.768-3.072-1.536-4.736-2.304l4.736-30.848c0.384-2.176-2.816-3.328-3.84-1.408l-14.976 27.008c-1.664-0.512-3.328-1.152-4.992-1.664l1.408-31.232c0.128-2.176-3.2-2.944-3.968-1.024l-12.032 28.416c-1.664-0.384-3.456-0.768-5.12-1.152l-1.792-31.232c-0.128-2.176-3.456-2.688-4.096-0.512l-9.088 29.44c-1.792-0.256-3.456-0.384-5.248-0.512l-5.12-30.848c-0.384-2.176-3.712-2.304-4.096-0.128l-5.888 30.208c-0.768 0-1.536-0.128-2.432-0.128-1.024 0-1.92 0.128-2.816 0.128l-8.32-30.208c-0.64-2.176-3.968-1.92-4.096 0.384l-2.688 30.592c-1.792 0.128-3.456 0.384-5.248 0.64l-11.392-29.056c-0.768-2.048-4.096-1.408-4.096 0.768l0.512 30.592c-1.792 0.384-3.456 0.768-5.12 1.152l-14.336-27.648c-1.024-1.92-4.224-1.024-3.968 1.152l3.712 30.336c-1.664 0.512-3.328 1.28-4.992 1.792L420.352 300.8c-1.152-1.792-4.352-0.512-3.84 1.536l6.784 29.696c-1.664 0.768-3.2 1.536-4.864 2.304l-19.712-24.064c-1.408-1.664-4.352-0.128-3.584 1.92l9.856 28.8c-1.536 0.896-3.072 1.92-4.608 2.816l-22.144-21.76c-1.536-1.536-4.352 0.384-3.456 2.304l12.8 27.52c-1.536 1.024-2.944 2.176-4.352 3.2l-24.192-19.328c-1.664-1.408-4.224 0.768-3.2 2.688l15.616 25.984c-1.408 1.152-2.688 2.432-4.096 3.712l-25.984-16.64c-1.92-1.152-4.224 1.28-2.816 2.944l18.176 24.192c-1.28 1.408-2.56 2.688-3.712 4.096l-27.392-13.696c-1.92-1.024-3.968 1.664-2.56 3.328l20.48 22.016c-1.152 1.536-2.304 2.944-3.328 4.48l-28.416-10.752c-2.048-0.768-3.84 2.048-2.176 3.584l22.528 19.584c-1.024 1.664-2.048 3.2-2.944 4.864l-29.184-7.552c-2.176-0.512-3.584 2.432-1.792 3.712l24.32 17.024c-0.768 1.792-1.792 3.456-2.56 5.248l-29.568-4.48c-2.176-0.384-3.328 2.816-1.408 3.84l25.728 14.336c-0.64 1.92-1.408 3.712-2.048 5.632l-29.568-1.408c-2.176-0.128-2.944 3.2-1.024 3.968l26.88 11.392c-0.512 1.92-1.024 3.84-1.408 5.888l-29.44 1.792c-2.176 0.128-2.688 3.456-0.512 4.096l27.776 8.576c-0.256 2.048-0.64 3.968-0.768 6.016l-28.928 4.736c-2.176 0.384-2.304 3.712-0.128 4.096l28.288 5.504c0 1.408-0.256 2.688-0.256 4.096 0 0.768 0.128 1.408 0.128 2.048l-28.16 7.808c-2.176 0.64-1.92 3.968 0.384 4.096l28.544 2.56c0.128 2.048 0.384 4.224 0.64 6.272l-27.008 10.624c-2.048 0.768-1.408 4.096 0.768 4.096l28.416-0.512c0.384 2.048 0.896 4.096 1.28 6.144l-25.6 13.312c-1.92 1.024-1.024 4.224 1.152 3.968l28.032-3.456c0.64 2.048 1.408 4.096 2.048 6.016l-24.064 15.872c-1.792 1.28-0.512 4.352 1.536 3.84l27.264-6.272c0.896 2.048 1.92 3.84 2.816 5.888L299.648 613.12c-1.664 1.408-0.128 4.352 1.92 3.584l26.496-9.088c1.024 1.92 2.304 3.712 3.328 5.504l-20.096 20.352c-1.536 1.536 0.384 4.352 2.304 3.456l25.344-11.776c1.28 1.792 2.56 3.456 3.968 5.248L325.12 652.672c-1.408 1.664 0.768 4.224 2.688 3.2l23.936-14.336c1.408 1.664 2.944 3.2 4.48 4.864l-15.232 23.936c-1.152 1.92 1.28 4.224 2.944 2.816l22.272-16.768c1.664 1.536 3.2 2.944 4.864 4.48L358.4 686.08c-1.024 1.92 1.664 3.968 3.328 2.56l20.352-18.944c1.792 1.28 3.584 2.688 5.376 3.968L377.6 700.16c-0.768 2.048 2.048 3.84 3.584 2.176l18.176-20.864c1.92 1.152 3.84 2.432 5.76 3.456l-7.04 27.008c-0.512 2.176 2.432 3.584 3.712 1.792l15.872-22.528c2.048 0.896 4.096 2.048 6.144 2.944l-4.096 27.392c-0.384 2.176 2.816 3.328 3.84 1.408l13.312-24.064c2.176 0.768 4.224 1.536 6.4 2.176l-1.28 27.776c-0.128 2.176 3.2 2.944 3.968 1.024l10.752-25.216c2.176 0.512 4.48 1.024 6.656 1.408l1.664 27.776c0.128 2.176 3.456 2.688 4.096 0.512l8.064-26.24c2.304 0.256 4.48 0.512 6.784 0.64l4.608 27.52c0.384 2.176 3.712 2.304 4.096 0.128l5.248-26.88c0.768 0 1.536 0.128 2.304 0.128 1.536 0 2.944-0.128 4.48-0.256l7.424 26.88c0.64 2.176 3.968 1.92 4.096-0.384l2.432-27.264c2.304-0.256 4.48-0.512 6.656-0.896l10.24 26.112c0.768 2.048 4.096 1.408 4.096-0.768l-0.512-27.392c2.176-0.384 4.352-1.152 6.528-1.664l12.928 24.96c1.024 1.92 4.224 1.024 3.968-1.152l-3.328-27.264c2.176-0.64 4.224-1.536 6.272-2.304l15.488 23.552c1.152 1.792 4.352 0.512 3.84-1.536l-6.144-27.008c2.048-0.896 3.968-1.92 6.016-2.944l17.92 21.888c1.408 1.664 4.352 0.128 3.584-1.92l-9.088-26.368c1.92-1.024 3.712-2.304 5.632-3.456l20.224 19.968c1.536 1.536 4.352-0.384 3.456-2.304l-11.904-25.472c1.792-1.28 3.456-2.56 5.12-3.84l22.4 17.92c1.664 1.408 4.224-0.768 3.2-2.688l-14.592-24.32c1.536-1.408 3.2-2.816 4.736-4.352l24.192 15.488c1.92 1.152 4.224-1.28 2.816-2.944L645.504 645.12c1.408-1.536 2.944-3.072 4.224-4.736l25.728 12.928c1.92 1.024 3.968-1.664 2.56-3.328l-19.456-20.864c1.28-1.664 2.56-3.328 3.712-4.992l27.136 10.24c2.048 0.768 3.84-2.048 2.176-3.456l-21.632-18.816c1.024-1.792 2.304-3.456 3.2-5.376l28.032 7.296c2.176 0.512 3.584-2.432 1.792-3.712l-23.552-16.512c0.896-1.92 1.792-3.712 2.56-5.632l28.928 4.352c2.176 0.384 3.328-2.816 1.408-3.84l-25.344-14.08c0.64-1.92 1.28-3.84 1.792-5.76l29.44 1.28c2.176 0.128 2.944-3.2 1.024-3.968l-26.752-11.392c0.384-1.92 0.768-3.968 1.152-5.888l29.568-1.792c2.176-0.128 2.688-3.456 0.512-4.096l-27.904-8.576c0.256-1.92 0.256-3.968 0.384-5.888l29.44-4.864c2.176-0.512 2.176-3.968 0.128-4.352z m-53.376-6.272c0 94.848-77.184 172.032-172.032 172.032-94.848 0-172.032-77.184-172.032-172.032s77.184-172.032 172.032-172.032c94.72 0 172.032 77.184 172.032 172.032z" fill="#B4B4BA" p-id="53904"></path><path d="M844.928 523.392l-44.16-8.448v-1.024c0-2.816-0.256-5.376-0.256-7.936l44.16-12.288c3.328-1.024 2.816-6.144-0.512-6.4l-44.928-3.84c-0.256-3.072-1.024-5.888-1.28-8.96l43.136-16.896c3.072-1.024 2.048-6.144-1.28-6.144l-45.44 0.768c-0.512-2.816-1.536-5.632-2.048-8.448l41.088-21.504c3.072-1.536 1.536-6.4-1.792-5.888l-45.184 5.376c-1.024-2.56-2.048-5.376-3.072-7.936l39.04-25.856c2.816-1.792 0.768-6.656-2.56-5.888l-44.672 10.496-3.84-7.68 36.48-29.824c2.56-2.048 0-6.656-3.072-5.632l-43.904 15.36c-1.28-2.304-2.816-4.608-4.352-6.912l33.152-33.664c2.304-2.56-0.512-6.656-3.584-5.376L743.68 338.56c-1.536-2.048-3.072-4.352-4.864-6.4l29.568-37.248c2.304-2.56-1.024-6.4-4.096-4.864l-40.064 24.32c-1.792-2.048-3.584-4.096-5.632-5.888l25.856-40.32c1.792-2.816-1.792-6.4-4.608-4.352l-37.504 28.288-6.144-5.376 21.504-42.624c1.536-3.072-2.56-6.144-4.864-3.84l-34.688 32.128c-2.048-1.792-4.096-3.328-6.4-4.864l16.896-44.672c1.28-3.328-3.072-5.888-5.376-3.328l-30.848 35.456c-2.304-1.28-4.608-2.816-6.912-4.096l12.032-46.208c0.768-3.328-3.84-5.632-5.632-2.816L624.512 240.64c-2.304-1.28-4.608-2.56-7.168-3.584l7.168-47.232c0.512-3.328-4.352-5.12-5.888-2.048l-23.04 41.344c-2.56-1.024-5.12-2.048-7.68-2.816l2.304-47.744c0-3.328-4.864-4.352-6.144-1.28l-18.688 43.392c-2.56-0.768-5.12-1.28-7.68-1.792l-2.816-47.744c-0.256-3.328-5.376-4.096-6.4-0.768l-13.824 44.928c-2.56-0.256-5.376-0.512-7.936-0.768l-7.936-47.232c-0.512-3.328-5.632-3.584-6.144-0.256l-9.216 46.208h-3.584c-1.536 0-2.816 0-4.352 0.256l-12.8-46.208c-0.768-3.328-5.888-2.816-6.144 0.512l-4.352 46.72c-2.56 0.256-5.376 0.512-7.936 1.024l-17.408-44.672c-1.28-3.072-6.4-2.048-6.144 1.28l0.768 46.72c-2.816 0.512-5.376 1.28-7.936 1.792l-22.016-42.112c-1.536-3.072-6.656-1.536-6.144 1.792l5.632 46.208c-2.56 0.768-5.12 1.792-7.68 2.816l-26.368-39.808c-1.792-2.816-6.4-0.768-5.632 2.304l10.24 45.44c-2.304 1.024-4.864 2.56-7.424 3.584l-30.08-36.736c-2.048-2.56-6.656 0-5.376 3.072l15.104 43.904c-2.56 1.536-4.864 3.072-7.168 4.352l-33.664-33.152c-2.304-2.56-6.656 0.512-5.12 3.584l19.456 42.112c-2.304 1.536-4.352 3.328-6.656 4.864l-36.736-29.312c-2.816-2.304-6.656 1.024-4.864 4.096l23.808 39.552c-2.048 1.792-4.096 3.84-6.144 5.632L257.408 267.52c-3.072-1.792-6.4 1.792-4.352 4.608l27.648 36.736c-1.792 2.048-3.84 4.352-5.632 6.4l-41.856-20.992c-3.072-1.536-6.144 2.56-3.84 4.864l31.36 33.664-5.376 6.912-43.392-16.384c-3.072-1.28-5.888 3.072-3.328 5.376l34.432 29.824-4.608 7.68-44.672-11.776c-3.328-0.768-5.376 3.84-2.56 5.632l36.992 26.112c-1.28 2.816-2.816 5.376-3.84 8.192l-45.184-6.912c-3.328-0.512-5.12 4.352-2.304 5.888l39.296 22.016-3.072 8.448-45.184-2.048c-3.328-0.256-4.608 4.864-1.536 6.144l41.088 17.664c-0.768 2.816-1.536 5.888-2.304 8.96l-44.928 2.56c-3.328 0.256-4.096 5.376-0.768 6.4l42.368 13.056c-0.256 3.072-0.768 6.144-1.024 9.216l-44.416 7.168c-3.328 0.768-3.328 5.888 0 6.4l43.136 8.448c0 2.304-0.256 4.096-0.256 6.4 0 1.024 0.256 2.048 0.256 3.072l-43.136 12.032c-3.328 0.768-2.816 5.888 0.512 6.144l43.648 3.84c0.256 3.328 0.512 6.4 0.768 9.728l-41.088 16.128c-3.328 1.28-2.304 6.4 1.024 6.144l43.392-0.512c0.768 3.072 1.536 6.144 2.048 9.472L167.68 600.448c-3.072 1.536-1.536 6.4 1.792 6.144l42.88-5.376c0.768 3.328 2.048 6.4 3.072 9.472l-36.736 24.32c-2.816 1.792-0.768 6.4 2.56 5.632l41.6-9.472c1.28 3.072 3.072 5.888 4.352 8.96l-33.664 27.776c-2.816 2.048-0.256 6.656 2.816 5.376l40.576-13.824c1.536 2.816 3.328 5.632 5.12 8.448l-30.592 31.104c-2.304 2.304 0.512 6.656 3.584 5.12l38.784-17.92c1.792 2.56 3.84 5.376 5.888 7.936l-27.136 33.92c-2.048 2.816 1.28 6.656 4.096 4.864l36.48-22.016c2.304 2.56 4.608 5.12 6.912 7.424l-23.552 36.48c-1.792 2.816 2.048 6.4 4.608 4.352l33.92-25.6 7.68 6.912-19.456 38.528c-1.536 3.072 2.56 6.144 5.12 3.84l30.848-28.8c2.816 2.048 5.376 4.096 8.192 6.144L312.576 800c-1.28 3.072 3.328 5.888 5.376 3.328l27.776-31.872c2.816 1.792 5.888 3.584 8.704 5.376l-10.752 41.344c-0.768 3.328 3.84 5.376 5.888 2.56l24.064-34.432c3.328 1.536 6.4 3.328 9.472 4.608l-6.4 41.856c-0.512 3.328 4.352 5.12 6.144 2.304l20.224-36.736c3.328 1.024 6.656 2.304 9.984 3.328l-2.048 42.368c0 3.328 4.864 4.608 6.144 1.536l16.64-38.528c3.328 0.768 6.656 1.536 10.24 2.048l2.304 42.624c0.256 3.328 5.376 3.84 6.4 0.768l12.288-40.064c3.584 0.512 6.912 0.768 10.496 1.024l6.912 42.112c0.512 3.328 5.632 3.328 6.4 0l7.936-41.088c1.28 0 2.304 0.256 3.584 0.256 2.304 0 4.608-0.256 6.912-0.512l11.264 41.344c1.024 3.072 5.888 2.816 6.4-0.512l3.584-41.856c3.584-0.256 6.912-0.768 10.24-1.28l15.616 39.808c1.28 3.072 6.4 2.304 6.4-1.024l-0.768-42.112c3.328-0.512 6.656-1.536 9.984-2.304l19.968 38.016c1.536 3.072 6.4 1.536 5.888-1.792l-5.12-41.856c3.328-1.024 6.4-2.304 9.728-3.328l23.808 35.968c1.792 2.816 6.656 0.768 5.888-2.56l-9.472-41.344c3.072-1.28 5.888-2.816 8.96-4.352l27.52 33.408c2.048 2.56 6.656 0.256 5.632-3.072l-14.08-40.32c3.072-1.536 5.888-3.328 8.704-5.12l30.848 30.592c2.56 2.304 6.656-0.512 5.376-3.584l-18.176-39.04c2.56-1.792 5.12-3.84 7.936-5.888l34.176 27.264c2.56 2.048 6.4-1.28 4.608-4.096l-22.272-36.992c2.56-2.304 4.864-4.352 7.424-6.656l36.992 23.808c2.816 1.792 6.4-2.048 4.352-4.608l-26.368-34.688c2.304-2.56 4.608-4.864 6.656-7.168l39.296 19.712c3.072 1.536 6.144-2.56 3.84-5.12l-29.568-31.872c1.792-2.56 3.84-5.12 5.632-7.68l41.344 15.616c3.328 1.024 5.888-3.328 3.328-5.376l-32.896-28.8c1.536-2.816 3.328-5.376 4.864-8.192l42.88 11.264c3.328 0.768 5.632-3.84 2.816-5.888l-35.968-25.344c1.28-2.816 2.56-5.632 3.84-8.704l44.16 6.912c3.328 0.512 4.864-4.352 2.048-6.144l-38.528-21.504c0.768-2.816 1.792-5.888 2.56-8.96l44.928 2.048c3.584 0.256 4.608-4.608 1.536-6.144L793.856 577.28c0.768-2.816 1.28-5.888 1.792-8.96l45.184-2.816c3.328 0 4.096-5.12 0.768-6.144l-42.624-13.056c0.256-3.072 0.512-6.144 0.512-9.216l45.184-7.424c3.328-0.384 3.328-5.504 0.256-6.272zM361.6 691.968C351.744 709.12 327.68 713.216 313.6 698.88c-47.232-47.488-76.672-112.896-76.672-184.96 0-72.32 29.312-137.344 76.416-184.96 14.336-14.336 38.272-10.24 48.256 7.168l87.296 152.192c9.472 16.64 9.472 36.736 0 53.12l-87.296 150.528z m394.112-116.736C727.936 690.944 623.872 776.96 500.096 776.96c-32.64 0-64.128-6.144-92.928-17.152-17.664-6.656-24.32-27.776-15.104-44.16l88.064-151.68c9.472-16.384 27.136-26.368 45.952-26.368l199.424 0.256c19.456 0.384 34.816 18.56 30.208 37.376z m-284.032-60.032c0-7.168 5.888-12.8 12.8-12.8 7.168 0 12.8 5.632 12.8 12.8s-5.632 12.8-12.8 12.8c-6.912 0-12.8-5.632-12.8-12.8z m255.744-15.232l-197.504-0.512c-18.944 0-36.48-10.24-45.952-26.88l-92.16-160.64c-9.216-16.128-2.56-37.248 15.104-43.904 28.8-11.264 60.288-17.152 93.184-17.152 127.744 0 234.496 91.648 257.92 212.736 3.584 18.944-11.52 36.352-30.592 36.352z" fill="#CECED3" p-id="53905"></path></svg>