<svg t="1642497301982" class="icon" viewBox="0 0 1024 1024" version="1.1" xmlns="http://www.w3.org/2000/svg" p-id="5673"
  width="200" height="200">
  <path d="M192 96h640a96 96 0 0 1 96 96v448H96V192a96 96 0 0 1 96-96z" fill="#2276FF" p-id="5674"></path>
  <path d="M96 672h832v32a96 96 0 0 1-96 96H192a96 96 0 0 1-96-96v-32z" fill="#90BAFF" p-id="5675"></path>
  <path d="M384 864v-64h256v64h128a32 32 0 0 1 0 64H256a32 32 0 0 1 0-64h128z" fill="#2276FF" p-id="5676"></path>
  <path
    d="M406.624 350.4a32 32 0 0 0-45.248 45.248l90.496 90.496a32 32 0 0 0 45.28 0l180.992-180.992a32 32 0 0 0-45.248-45.28l-158.4 158.4-67.84-67.872z"
    fill="#FFFFFF" p-id="5677"></path>
</svg>