<svg t="1655191992673" class="icon" viewBox="0 0 1024 1024" version="1.1" xmlns="http://www.w3.org/2000/svg"
  p-id="31637" width="200" height="200">
  <path
    d="M512 64a448 448 0 1 0 0.064 896.064A448 448 0 0 0 512 64z m70.208 612.864c-33.792 50.752-68.224 89.92-126.08 89.92-39.488-6.464-55.744-34.816-47.168-63.616l74.432-246.528c1.856-6.08-1.152-12.48-6.656-14.464s-16.256 5.184-25.6 15.36l-44.928 54.144c-1.28-9.024-0.192-24.064-0.192-30.144 33.856-50.752 89.344-90.816 127.04-90.816 35.84 3.712 52.736 32.32 46.528 63.744l-74.944 247.744c-0.96 5.632 1.984 11.264 7.04 13.056 5.504 1.984 17.088-5.184 26.432-15.424l44.928-54.08c1.216 9.088-0.832 25.088-0.832 31.104z m-9.984-322.048c-28.48 0-51.52-20.672-51.52-51.264 0-30.528 23.104-51.264 51.52-51.264 28.48 0 51.52 20.736 51.52 51.264 0 30.592-23.04 51.264-51.52 51.264z"
    fill="#3983FF" p-id="31638"></path>
</svg>