<svg t="1642499805368" class="icon" viewBox="0 0 1024 1024" version="1.1" xmlns="http://www.w3.org/2000/svg"
  p-id="58392" width="200" height="200">
  <path
    d="M569.6 61.696l357.248 206.272a64 64 0 0 1 32 55.424v412.48a64 64 0 0 1-32 55.424L569.6 997.568a64 64 0 0 1-64 0l-357.248-206.272a64 64 0 0 1-32-55.424V634.24l275.008 158.784a64 64 0 0 0 56.32 3.776l7.68-3.776 290.688-167.808a64 64 0 0 0 32-55.424V234.048a64 64 0 0 0-32-55.424L529.536 53.632A64 64 0 0 1 569.6 61.696z"
    fill="#FF9918" opacity=".35" p-id="58393"></path>
  <path
    d="M455.36 10.56l290.688 167.872a64 64 0 0 1 32 55.424v335.68a64 64 0 0 1-32 55.424l-290.688 167.872a64 64 0 0 1-64 0L100.608 624.96a64 64 0 0 1-32-55.424V233.856a64 64 0 0 1 32-55.424L391.36 10.56a64 64 0 0 1 64 0z m-32 83.904l-266.048 153.6v307.2l266.048 153.6 265.984-153.6v-307.2l-265.984-153.6zM437.632 211.2a32 32 0 0 1-11.712 43.712l-144.128 83.2a32 32 0 1 1-32-55.424l144.128-83.2a32 32 0 0 1 43.712 11.712z"
    fill="#FF9918" p-id="58394"></path>
</svg>