<svg t="1655954150838" class="icon" viewBox="0 0 1024 1024" version="1.1" xmlns="http://www.w3.org/2000/svg"
  p-id="19581" width="200" height="200">
  <path
    d="M759.051 949.125H264.948c-83.037 0-150.36-67.324-150.36-150.36V357.64c0-83.032 67.324-150.36 150.36-150.36h494.103c83.037 0 150.362 67.329 150.362 150.36v441.125c-0.095 83.036-67.325 150.36-150.362 150.36z m0 0"
    fill="#3D100B" p-id="19582"></path>
  <path
    d="M909.413 693.257v79.066c-0.095 82.937-67.325 150.26-150.362 150.26H264.948c-83.037 0-150.36-67.324-150.36-150.355v-441.03c0-83.037 67.324-150.36 150.36-150.36h494.103c83.037 0 150.362 67.324 150.362 150.36v102.059m0 84v87.999M759.051 922.583"
    fill="#E7402E" p-id="19583"></path>
  <path
    d="M759.051 937.583H264.948c-91.18 0-165.36-74.178-165.36-165.355v-441.03c0-91.18 74.18-165.36 165.36-165.36h494.103c91.181 0 165.362 74.18 165.362 165.36v102.059c0 8.284-6.716 15-15 15-8.284 0-15-6.716-15-15V331.198c0-74.638-60.723-135.36-135.362-135.36H264.948c-74.638 0-135.36 60.723-135.36 135.36v441.03c0 74.635 60.722 135.355 135.36 135.355h494.103c74.553 0 135.276-60.685 135.362-135.277v-79.049c0-8.284 6.716-15 15-15 8.284 0 15 6.716 15 15v79.066c-0.105 91.132-74.286 165.26-165.362 165.26z m150.362-317.326c-8.284 0-15-6.716-15-15v-88c0-8.284 6.716-15 15-15 8.284 0 15 6.716 15 15v88c0 8.284-6.716 15-15 15z"
    fill="#3D100B" p-id="19584"></path>
  <path
    d="M725.049 868.579h-61.807c-8.284 0-15-6.716-15-15s6.716-15 15-15h61.807c8.284 0 15 6.716 15 15s-6.716 15-15 15z m-147.807 0h-290c-8.284 0-15-6.716-15-15s6.716-15 15-15h290c8.284 0 15 6.716 15 15s-6.716 15-15 15z"
    fill="#FFFFFF" p-id="19585"></path>
  <path
    d="M308.855 251.482c0 34.165 27.695 61.86 61.86 61.86s61.86-27.695 61.86-61.86-27.695-61.865-61.86-61.865-61.86 27.7-61.86 61.865z m0 0M582.545 251.482a61.873 61.873 0 0 0 30.929 53.575 61.88 61.88 0 0 0 61.865 0 61.865 61.865 0 0 0 0-107.15 61.875 61.875 0 0 0-61.865 0 61.867 61.867 0 0 0-30.929 53.575z m0 0"
    fill="#3D100B" p-id="19586"></path>
  <path
    d="M370.715 295.68c-29.272 0-52.983-23.706-52.983-52.978V127.858c0-29.272 23.711-52.983 52.983-52.983s52.983 23.711 52.983 52.983v114.844c0 29.172-23.711 52.978-52.983 52.978z m0 0M644.404 295.68c-29.272 0-52.978-23.706-52.978-52.978V127.858c0-29.272 23.706-52.983 52.978-52.983s52.984 23.711 52.984 52.983v114.844c0 29.172-23.713 52.978-52.984 52.978z m0 0"
    fill="#F4DD50" p-id="19587"></path>
  <path
    d="M380.667 747.631V583.843h-58.243v-39.711h5.118c21.767 0 37.946-3.646 48.536-10.943 10.589-7.294 16.59-18.943 18.002-34.946h49.595v249.388h-63.008zM519.039 638.557l17.826-140.667h155.669v49.772h-113.84l-6.53 48.889c5.529-5.648 12.324-9.884 20.385-12.708 8.058-2.824 17.443-4.236 28.151-4.236 24.71 0 44.447 7.62 59.214 22.856 14.765 15.24 22.15 35.682 22.15 61.332 0 28.239-8.913 50.42-26.739 66.539-17.826 16.122-42.331 24.18-73.51 24.18-28.005 0-49.802-6.619-65.391-19.856-15.592-13.237-24.268-32.387-26.033-57.449h61.067c0.587 9.062 3.676 16.122 9.266 21.179 5.587 5.061 13.088 7.59 22.503 7.59 11.295 0 19.914-3.381 25.857-10.148 5.94-6.765 8.913-16.618 8.913-29.563 0-12.823-2.854-22.826-8.56-30.004-5.709-7.176-13.678-10.767-23.915-10.767-7.06 0-13.149 1.266-18.268 3.795-5.118 2.532-9.503 6.442-13.149 11.737l-55.066-2.471z"
    fill="#FFFFFF" p-id="19588"></path>
  <path
    d="M740.166 381.34c0 9.942-8.06 18.002-18.002 18.002h-419.84c-9.942 0-18.002-8.06-18.002-18.002 0-9.942 8.06-18.002 18.002-18.002h419.84c9.942 0 18.002 8.059 18.002 18.002z"
    fill="#3D100B" p-id="19589"></path>
</svg>